<svg fill="#000000" xmlns="http://www.w3.org/2000/svg"  viewBox="0 0 128 128" width="64px" height="64px"><path d="M 64 1 C 29.26 1 1 29.26 1 64 C 1 98.74 29.26 127 64 127 C 98.74 127 127 98.74 127 64 C 127 29.26 98.74 1 64 1 z M 64 7 C 95.43 7 121 32.57 121 64 C 121 95.43 95.43 121 64 121 C 32.57 121 7 95.43 7 64 C 7 32.57 32.57 7 64 7 z M 36.5 33.501953 C 35.7325 33.501953 34.965859 33.795859 34.380859 34.380859 C 33.210859 35.550859 33.210859 37.449141 34.380859 38.619141 L 51.269531 55.509766 C 54.669531 58.909766 59.19 60.779297 64 60.779297 C 68.81 60.779297 73.330469 58.909766 76.730469 55.509766 L 93.619141 38.619141 C 94.789141 37.449141 94.789141 35.550859 93.619141 34.380859 C 92.449141 33.210859 90.550859 33.210859 89.380859 34.380859 L 72.490234 51.269531 C 70.220234 53.539531 67.21 54.779297 64 54.779297 C 60.79 54.779297 57.779766 53.529531 55.509766 51.269531 L 38.619141 34.380859 C 38.034141 33.795859 37.2675 33.501953 36.5 33.501953 z M 64 67.220703 C 59.19 67.220703 54.669531 69.090234 51.269531 72.490234 L 34.380859 89.380859 C 33.210859 90.550859 33.210859 92.449141 34.380859 93.619141 C 35.550859 94.789141 37.449141 94.789141 38.619141 93.619141 L 55.509766 76.730469 C 57.779766 74.460469 60.79 73.220703 64 73.220703 C 67.21 73.220703 70.220234 74.470469 72.490234 76.730469 L 89.380859 93.619141 C 89.970859 94.209141 90.73 94.5 91.5 94.5 C 92.27 94.5 93.039141 94.209141 93.619141 93.619141 C 94.789141 92.449141 94.789141 90.550859 93.619141 89.380859 L 76.730469 72.490234 C 73.330469 69.090234 68.81 67.220703 64 67.220703 z"/></svg>